<?xml version="1.0" encoding="UTF-8" standalone="no"?>
<!-- Generator: Adobe Illustrator 24.1.2, SVG Export Plug-In . SVG Version: 6.00 Build 0)  -->

<svg
   version="1.1"
   id="Layer_3"
   x="0px"
   y="0px"
   viewBox="0 0 128 128"
   style="enable-background:new 0 0 128 128;"
   xml:space="preserve"
   sodipodi:docname="emoji_u1f980-bo.svg"
   inkscape:version="1.2 (dc2aeda, 2022-05-15)"
   xmlns:inkscape="http://www.inkscape.org/namespaces/inkscape"
   xmlns:sodipodi="http://sodipodi.sourceforge.net/DTD/sodipodi-0.dtd"
   xmlns="http://www.w3.org/2000/svg"
   xmlns:svg="http://www.w3.org/2000/svg"><defs
   id="defs57" /><sodipodi:namedview
   id="namedview55"
   pagecolor="#ffffff"
   bordercolor="#666666"
   borderopacity="1.0"
   inkscape:showpageshadow="2"
   inkscape:pageopacity="0.0"
   inkscape:pagecheckerboard="true"
   inkscape:deskcolor="#d1d1d1"
   showgrid="false"
   inkscape:zoom="6.3046875"
   inkscape:cx="64"
   inkscape:cy="64"
   inkscape:window-width="1516"
   inkscape:window-height="1027"
   inkscape:window-x="1920"
   inkscape:window-y="25"
   inkscape:window-maximized="0"
   inkscape:current-layer="Layer_3" />

























<g
   id="g1543"
   style="stroke:#ffffff;stroke-width:10;stroke-dasharray:none"
   transform="matrix(0.93059143,0,0,0.93059143,4.7250202,3.081235)"><path
     style="fill:#ff9003;stroke:#ffffff;stroke-width:10;stroke-dasharray:none"
     d="m 69.69,64.8 c 0,0 -0.37,-6.3 -0.97,-8.02 -1.55,-4.4 -1.42,-11.99 5.02,-11.54 6.45,0.45 4.95,7.72 3.67,11.62 -1.27,3.9 -0.67,8.09 -0.67,8.09 z"
     id="path1491" /><path
     style="fill:#ff9003;stroke:#ffffff;stroke-width:10;stroke-dasharray:none"
     d="m 58.6,65.24 c 0.07,-0.3 -0.37,-4.95 0.07,-8.84 0.44,-3.89 2.55,-9.97 -3.45,-11.02 -6,-1.05 -8.52,7.02 -6.05,12.64 2.47,5.62 2.6,8.34 2.6,8.34 z"
     id="path1493" /><path
     style="fill:#fa1c1f;stroke:#ffffff;stroke-width:10;stroke-dasharray:none"
     d="m 42.56,26.72 c 4.8,-3.4 15.09,-7.09 16.09,-5.2 1,1.9 -8.59,8.69 -8.59,8.69 0,0 2.7,5.1 2.7,6.5 0,1.4 0.1,4.9 -1.5,6.1 -1.6,1.2 -13.19,8.49 -13.19,8.49 0,0 -0.09,1.46 -0.5,2.6 -0.8,2.22 -2,2.9 -2,2.9 l -0.7,5.3 3.9,8.39 7.49,28.98 -4.4,2.8 c 0,0 -7.09,-1.9 -8.69,-2 -1.6,-0.1 -4.5,-0.4 -5.2,-0.1 -0.7,0.3 -0.9,-3.5 -0.9,-3.5 0,0 4.4,-3.4 4.3,-4.3 -0.1,-0.9 -2.9,-0.97 -4.4,-1.12 -1.5,-0.15 -5.32,0.45 -5.7,-0.15 -0.38,-0.6 -0.3,-2.85 1.2,-3.52 1.5,-0.67 6.6,-2.77 6.67,-3.37 0.07,-0.6 -5.12,-1.67 -8.47,-2.72 -3.24,-1.02 -5,-1.6 -7.42,-2.22 C 11.51,78.82 9.13,78.9 9.13,78.9 l 3.6,-4.72 16.94,1.95 c 0,0 -7.94,-6.15 -9.14,-7.27 -1.2,-1.12 -2.32,-2.32 -2.32,-2.32 0,0 1.42,-0.97 2.7,-0.67 1.28,0.3 8.84,6.6 8.84,6.6 0,0 -0.15,-2.4 0.45,-3.45 0.6,-1.05 1.27,-1.27 1.27,-1.27 0,0 1.12,0.9 1.5,0.37 0.37,-0.52 -1.65,-2.7 -2.4,-4.65 -0.75,-1.95 -0.75,-3.22 -0.75,-3.22 0,0 -3.75,-0.9 -4.35,-5.85 -0.6,-4.95 5.02,-8.24 5.02,-8.24 z"
     id="path1495" /><path
     style="fill:#fa1c1f;stroke:#ffffff;stroke-width:10;stroke-dasharray:none"
     d="m 69.84,21.75 c -0.75,2.95 5.85,9.32 5.85,9.32 l -0.15,2.4 c 0,0 -2.25,5.85 -0.6,7.94 1.65,2.1 8.32,3.9 8.32,3.9 l 7.87,7.94 c 0,0 2.4,3.07 3.37,4.05 0.97,0.97 -4.57,7.94 -4.57,7.94 l -2.85,22.48 2.4,12.22 11.79,-1.12 c 0,0 -0.85,-2.32 -1.22,-3.45 -0.37,-1.12 -4.27,-4.57 -4.27,-4.57 0,0 1.72,-1.87 4.72,-2.02 3,-0.15 6,1.12 5.62,0 -0.37,-1.12 -1.87,-3.45 -1.87,-3.45 l -6.6,-2.62 c 0,0 3.52,-2.17 5.92,-3.07 2.4,-0.9 10.19,-2.85 11.24,-3.22 1.05,-0.37 4.5,0.52 3.37,-1.42 -1.12,-1.95 -7.12,-1.95 -7.12,-1.95 l -12.89,1.2 c 0,0 2.62,-2.77 5.47,-4.8 2.85,-2.02 7.49,-5.32 7.49,-5.32 L 107.32,63 96.98,66.67 c 0,0 -2.32,1.57 -2.32,0.52 0,-1.05 4.4,-2.82 5.9,-6.12 1.07,-2.36 0.17,-3.4 0.17,-3.4 0,0 2.25,-1.12 2.4,-4.65 0.15,-3.52 -2.62,-7.27 -2.62,-7.27 L 78.39,23.13 c 0,0 -7.99,-3.55 -8.55,-1.38 z"
     id="path1497" /><path
     style="fill:#ff5f00;stroke:#ffffff;stroke-width:10;stroke-dasharray:none"
     d="m 34.17,57.63 c -2.59,1.16 -1.72,4.4 -1.2,5.82 0.52,1.42 2.1,4.35 2.1,4.35 0,0 -1.5,2.92 -1.87,4.2 -0.37,1.27 -1.2,6.52 0.37,11.62 1.57,5.1 5.1,12.82 6,14.24 0.9,1.42 3.9,6.82 10.34,9.89 6.44,3.07 14.31,2.96 20.16,2.55 7.49,-0.52 14.54,-5.1 15.81,-6.97 1.27,-1.87 4.05,-3.3 5.62,-8.92 1.57,-5.62 3.15,-14.09 2.7,-20.01 -0.45,-5.92 -2.55,-8.47 -2.55,-8.47 0,0 2.7,-1.27 4.27,-3.37 1.57,-2.1 2.3,-4.55 0.12,-5.37 -2.17,-0.82 -5.57,1.47 -6.42,2.6 -1.3,1.72 -2.02,3.52 -2.02,3.52 0,0 -16.42,-0.15 -23.98,0.22 -12.07,0.6 -18.51,2.02 -18.51,2.02 l -5.17,0.22 c 0,0 -0.22,-10.62 -5.77,-8.14 z"
     id="path1499" /><path
     style="fill:#ff5f00;stroke:#ffffff;stroke-width:10;stroke-dasharray:none"
     d="m 8.19,71.04 c -1.41,-1.04 0.8,-4.1 4.65,-6.7 3.85,-2.6 6.15,-3.45 7.89,-3.15 1.75,0.3 6.5,3.35 8.59,4.75 1.79,1.2 3.7,2.2 3.75,2.5 0.05,0.3 -0.93,0.09 -2,1.85 -0.57,0.95 -1.2,2.85 -1.05,2.75 0.15,-0.1 -9.34,-5.92 -10.14,-5.92 -0.8,0 -5,2.17 -6.4,2.67 -1.39,0.5 -4.14,2.1 -5.29,1.25 z"
     id="path1501" /><path
     style="fill:#ff5f00;stroke:#ffffff;stroke-width:10;stroke-dasharray:none"
     d="m 0.42,85.85 c 0.37,0.88 2.05,1.1 5.2,-1.05 3.15,-2.15 7.34,-6.65 8.19,-6.89 0.85,-0.24 7.24,0.9 10.74,1.4 3.5,0.5 5.55,1 5.55,1 l -0.25,-4.1 c 0,0 -9.89,-2.85 -13.24,-3.25 -3.35,-0.4 -3.7,-1 -5.55,-0.2 -1.85,0.8 -6.05,5.85 -7.19,7.24 -1.14,1.39 -3.85,4.91 -3.45,5.85 z"
     id="path1503" /><path
     style="fill:#ff5f00;stroke:#ffffff;stroke-width:10;stroke-dasharray:none"
     d="m 20.66,84.16 c -2.2,0.45 -8.79,5.85 -9.99,7.89 -1.2,2.05 -4,8.59 -4.65,11.04 -0.65,2.45 0.8,2.5 2.3,1.9 1.5,-0.6 5.3,-6.45 6,-7.44 0.7,-1 3.95,-3.6 4.95,-4.5 1,-0.9 4,-3.5 4.7,-3.65 0.7,-0.15 7.99,0.65 8.34,0.25 0.35,-0.4 -0.15,-2.1 -0.7,-3.05 -0.55,-0.95 -2.37,-2.02 -2.37,-2.02 0,0 -6.89,-0.77 -8.58,-0.42 z"
     id="path1505" /><path
     style="fill:#ff5f00;stroke:#ffffff;stroke-width:10;stroke-dasharray:none"
     d="m 32.15,93.4 c -2.35,-0.6 -7.14,1 -8.49,1.8 -1.35,0.8 -2.8,3 -3.55,6.25 -0.75,3.25 -1.7,8.69 -0.95,9.09 0.75,0.4 3.7,-1 4.9,-3.8 1.2,-2.8 2.75,-5.65 3.95,-6.6 1.2,-0.95 3.15,-1.35 4.9,-1.35 1.75,0 3.9,0 3.9,0 0,0 -1.6,-2.9 -1.95,-3.7 C 34.5,94.3 33.62,93.78 32.15,93.4 Z"
     id="path1507" /><path
     style="fill:#ff9003;stroke:#ffffff;stroke-width:10;stroke-dasharray:none"
     d="m 45.09,70.27 c -1.65,-2.05 -4.55,-0.3 -6.4,2.25 -1.85,2.55 -2.2,3.75 -1.9,8.44 0.3,4.7 4.55,5.15 4.6,1.8 0.05,-3.35 -0.55,-4.35 0.55,-5.95 1.1,-1.6 4.86,-4.42 3.15,-6.54 z"
     id="path1509" /><path
     style="fill:#ff9003;stroke:#ffffff;stroke-width:10;stroke-dasharray:none"
     d="m 39.44,90 c 1.14,1.4 4.35,0.95 4.6,-1.4 0.25,-2.35 -1.3,-3 -2.95,-3 -2.36,0.01 -2.95,2.8 -1.65,4.4 z"
     id="path1511" /><path
     style="fill:#ff5f00;stroke:#ffffff;stroke-width:10;stroke-dasharray:none"
     d="m 95.55,67.44 c 0,0 0.65,0.57 1.15,1.62 0.56,1.18 0.67,1.75 0.85,2 0.22,0.31 8.24,-6.35 10.54,-6.75 2.3,-0.4 8.04,3.7 10.44,4.1 1.89,0.31 3.35,-0.1 2.15,-2.05 -1.2,-1.95 -8.14,-7.69 -11.14,-7.44 -3.48,0.29 -13.44,8.12 -13.99,8.52 z"
     id="path1513" /><path
     style="fill:#ff5f00;stroke:#ffffff;stroke-width:10;stroke-dasharray:none"
     d="m 98.17,74.24 c 0,0 13.65,-5.22 16.81,-4.57 3.65,0.75 6.92,5.72 8.14,6.99 1.37,1.42 5.8,6.1 3.35,6.99 -4.11,1.51 -11.59,-7.84 -12.84,-8.44 -1.25,-0.6 -2,-0.25 -5.4,0.3 -3.4,0.55 -10.43,2.65 -10.43,2.65 -0.02,0.01 0.19,-1.5 0.22,-2.12 0.03,-0.6 0.15,-1.8 0.15,-1.8 z"
     id="path1515" /><path
     style="fill:#ff5f00;stroke:#ffffff;stroke-width:10;stroke-dasharray:none"
     d="m 97.55,82.21 c -0.33,0.33 -0.56,2.46 -0.65,2.95 -0.15,0.8 -0.35,2.1 -0.35,2.1 0,0 7.24,0.15 7.94,0.45 0.7,0.3 2.95,2.62 4.8,4.25 1.42,1.24 5.65,5.35 5.65,5.35 0,0 3.2,6.35 5.15,6.4 1.95,0.05 1.95,-2.65 1.05,-5.1 -0.9,-2.45 -2.2,-6.6 -2.7,-7.09 -0.5,-0.5 -2.25,-3 -4.35,-5.1 -1.03,-1.03 -4.8,-4.3 -5.8,-4.45 -1,-0.16 -10.04,-0.46 -10.74,0.24 z"
     id="path1517" /><path
     style="fill:#ff5f00;stroke:#ffffff;stroke-width:10;stroke-dasharray:none"
     d="m 95.75,90.58 c 0,0 6.94,1.07 9.49,3.32 1.55,1.37 3.37,5.27 3.7,8.49 0.1,1.01 0.75,7.14 -0.95,7.39 -1.7,0.25 -4.02,-3.22 -4.67,-5.02 -0.65,-1.8 -1.82,-4.97 -1.82,-4.97 0,0 -3.23,-1.93 -3.4,-2 -1.2,-0.47 -4.9,-0.55 -4.9,-0.55 0,0 1.24,-2.24 1.65,-3.4 0.5,-1.41 0.9,-3.26 0.9,-3.26 z"
     id="path1519" /><path
     style="fill:#ff5f00;stroke:#ffffff;stroke-width:10;stroke-dasharray:none"
     d="m 34.85,26.4 c -7.69,4.85 -12.02,18.09 -4.6,23.58 8.09,6 19.24,-2.7 24.13,-9.29 4.89,-6.59 7.29,-9.99 5.8,-12.04 -1.49,-2.05 -8.69,4.3 -8.69,4.3 0,0 0.65,2.25 0.55,4.85 -0.1,2.6 -0.3,5.05 -1.45,5.05 -1.15,0 -1.05,-3.85 -2.15,-7.14 -1.1,-3.29 -2.25,-3.7 -2.2,-5 0.05,-1.3 5.85,-4.56 7.32,-5.42 3.17,-1.87 5.85,-3.47 4.57,-4.22 C 57.08,20.43 46.3,19.19 34.85,26.4 Z"
     id="path1521" /><path
     style="fill:#ff9003;stroke:#ffffff;stroke-width:10;stroke-dasharray:none"
     d="m 31.4,44.58 c 3.48,-0.41 1.87,-3.88 2.65,-6.7 0.95,-3.45 3.95,-5.35 1.7,-7.29 -2.47,-2.14 -5.25,2.01 -6.15,6.5 -0.55,2.75 -0.75,7.79 1.8,7.49 z"
     id="path1523" /><path
     style="fill:#ff5f00;stroke:#ffffff;stroke-width:10;stroke-dasharray:none"
     d="m 79.81,32.74 c 0.05,0.95 -2.45,1.85 -3.15,5.2 -0.7,3.35 -0.75,6.1 4.95,10.39 5.7,4.29 12.89,8.14 17.74,2.55 4.85,-5.59 2.6,-16.84 -6.5,-24.08 -7.39,-5.88 -17.64,-7.53 -21.98,-6 -2.55,0.9 2,3.55 4.65,6.15 3.11,3.06 4.24,4.84 4.29,5.79 z"
     id="path1525" /><path
     style="fill:#ff5f00;stroke:#ffffff;stroke-width:10;stroke-dasharray:none"
     d="m 68.87,29.22 c -0.89,0.94 -0.28,4.45 1.4,6.75 1.35,1.85 4.5,5.05 4.5,5.05 0,0 -0.6,-4.15 -0.2,-5.05 0.4,-0.9 0.2,-2.8 0.2,-2.8 0,0 -1.6,-1.45 -2.5,-2.2 -0.9,-0.75 -2.55,-2.65 -3.4,-1.75 z"
     id="path1527" /><path
     style="fill:#ff9009;stroke:#ffffff;stroke-width:10;stroke-dasharray:none"
     d="m 79.61,36.54 c -1.8,0.3 -1.22,3.16 0,5.7 1.25,2.6 3.3,3.75 4.55,2.7 1.25,-1.05 -0.15,-3.35 -0.9,-4.7 -0.75,-1.35 -1.85,-4 -3.65,-3.7 z"
     id="path1529" /><ellipse
     transform="matrix(0.2852,-0.9585,0.9585,0.2852,2.2977,107.9575)"
     style="fill:#322d2e;stroke:#ffffff;stroke-width:9.99969;stroke-dasharray:none"
     cx="73.529999"
     cy="52.439999"
     rx="4.3200002"
     ry="3.3499999"
     id="ellipse1531" /><ellipse
     transform="matrix(0.9948,-0.1018,0.1018,0.9948,-5.0547,5.7466)"
     style="fill:#322d2e;stroke:#ffffff;stroke-width:10;stroke-dasharray:none"
     cx="53.790001"
     cy="52.41"
     rx="3.6400001"
     ry="4.3200002"
     id="ellipse1533" /><path
     style="fill:#a62616;stroke:#ffffff;stroke-width:10;stroke-dasharray:none"
     d="m 77.99,30.1 c -0.7,-1.1 -2.91,0.69 -3.85,2.95 -1.1,2.65 -1.1,6.3 0.35,7.79 1.45,1.49 0.1,-3.6 1.45,-6.3 1.12,-2.24 2.75,-3.35 2.05,-4.44 z"
     id="path1535" /><path
     style="fill:#a62616;stroke:#ffffff;stroke-width:10;stroke-dasharray:none"
     d="m 47.94,28.85 c -0.78,0.78 0.35,1.15 1,2.8 0.65,1.65 1.2,2.9 1.55,4.95 0.27,1.58 0.05,6.87 1.15,5.32 1.1,-1.55 1.32,-8.07 -0.15,-10.57 -1.31,-2.2 -2.66,-3.4 -3.55,-2.5 z"
     id="path1537" /><path
     style="fill:#a62616;stroke:#ffffff;stroke-width:10;stroke-dasharray:none"
     d="m 82.16,63.62 c 0.27,1.09 4.2,0.65 6.75,2.05 2.55,1.4 4.5,4.9 4.35,12.09 -0.16,7.2 -2.26,15.18 -2.61,16.34 -0.85,2.85 -3.9,7.84 -4.45,8.54 -0.55,0.7 -1.82,2.27 0.5,0.65 2.55,-1.78 3.5,-3.2 3.5,-3.2 0,0 4.55,0.15 4.7,-0.75 0.15,-0.9 -3.7,-1.35 -3.7,-1.35 0,0 0.8,-1.55 1.45,-3.55 0.65,-2 1.15,-3.85 1.15,-3.85 0,0 1.15,0.02 3.67,-0.25 2.77,-0.3 6.77,-0.4 7.27,-1.2 0.62,-0.99 -4.12,-0.8 -6.55,-0.57 -1.98,0.18 -4.05,0.07 -4.05,0.07 0,0 0.35,-1.97 0.55,-3.22 0.2,-1.25 0.32,-2.8 0.32,-2.8 0,0 4.92,-1.15 6.47,-1.65 1.55,-0.5 6.8,-2.17 6.75,-2.92 -0.04,-0.55 -4.05,0.15 -6.87,0.85 -2.42,0.6 -6.32,1.45 -6.32,1.45 0,0 0.15,-2.25 0.25,-3.4 0.1,-1.15 0,-2.45 0,-2.45 0,0 1.8,0.2 2.87,-0.27 1.07,-0.47 2.7,-2.24 3.97,-3.12 1.4,-0.97 5.27,-3.7 5.02,-4.35 -0.28,-0.73 -5.02,2.05 -6.5,3.07 -1.14,0.79 -2.82,2.22 -3.67,2.37 -0.85,0.15 -1.8,0.25 -1.8,0.25 0,0 -0.7,-2.95 -1.05,-4.05 -0.35,-1.1 -1.55,-3.4 -3.5,-4.6 -1.95,-1.2 -9.07,-2.63 -8.47,-0.18 z"
     id="path1539" /><path
     style="fill:#a32916;stroke:#ffffff;stroke-width:10;stroke-dasharray:none"
     d="m 36.79,66.12 c -3.1,1.05 -5,4.25 -5.25,6.35 -0.25,2.1 -0.1,2.9 -0.1,2.9 0,0 -3.4,-2.4 -4.7,-3.5 -0.9,-0.76 -6.97,-5.7 -7.67,-4.55 -0.7,1.15 6.07,6.15 6.77,6.85 0.7,0.7 5.5,4.05 5.5,4.05 l 0.6,3.2 c 0,0 -1.67,0.5 -3.32,0.65 -1.65,0.15 -8.41,-2.62 -8.62,-0.82 -0.05,0.42 7.9,2.81 8.49,2.92 1.27,0.25 4.4,-0.15 4.4,-0.15 0,0 1,3.22 1.2,3.82 0.2,0.6 1.07,2.9 1.07,2.9 0,0 -2.82,0.07 -3.67,0.02 -1.32,-0.07 -6.51,-0.53 -6.7,0.45 -0.12,0.65 5.5,1.05 7.29,1.35 1.8,0.3 3.9,0.55 3.9,0.55 0,0 1.02,2.37 1.82,3.57 0.8,1.2 2.52,3.7 2.52,3.7 0,0 -7.11,-1.23 -6.85,-0.02 0.15,0.67 8.44,2.85 8.44,2.85 0,0 8.26,5.36 9.36,5.11 1.14,-0.26 -2.85,-1.95 -6.11,-5.26 -2.13,-2.17 -5.42,-6.5 -7.52,-11.59 -0.85,-2.06 -4.22,-12.68 -4.02,-16.29 0.2,-3.65 1.65,-5.65 3.85,-6.65 2.2,-1 9.84,-2 8.29,-3.2 -1.52,-1.21 -6.98,0.12 -8.97,0.79 z"
     id="path1541" /></g><g
   id="g1489"
   transform="matrix(0.93059143,0,0,0.93059143,4.6397128,3.1072442)"><path
     style="fill:#ff9003"
     d="m 69.69,64.8 c 0,0 -0.37,-6.3 -0.97,-8.02 -1.55,-4.4 -1.42,-11.99 5.02,-11.54 6.45,0.45 4.95,7.72 3.67,11.62 -1.27,3.9 -0.67,8.09 -0.67,8.09 z"
     id="path2" /><path
     style="fill:#ff9003"
     d="m 58.6,65.24 c 0.07,-0.3 -0.37,-4.95 0.07,-8.84 0.44,-3.89 2.55,-9.97 -3.45,-11.02 -6,-1.05 -8.52,7.02 -6.05,12.64 2.47,5.62 2.6,8.34 2.6,8.34 z"
     id="path4" /><path
     style="fill:#fa1c1f"
     d="m 42.56,26.72 c 4.8,-3.4 15.09,-7.09 16.09,-5.2 1,1.9 -8.59,8.69 -8.59,8.69 0,0 2.7,5.1 2.7,6.5 0,1.4 0.1,4.9 -1.5,6.1 -1.6,1.2 -13.19,8.49 -13.19,8.49 0,0 -0.09,1.46 -0.5,2.6 -0.8,2.22 -2,2.9 -2,2.9 l -0.7,5.3 3.9,8.39 7.49,28.98 -4.4,2.8 c 0,0 -7.09,-1.9 -8.69,-2 -1.6,-0.1 -4.5,-0.4 -5.2,-0.1 -0.7,0.3 -0.9,-3.5 -0.9,-3.5 0,0 4.4,-3.4 4.3,-4.3 -0.1,-0.9 -2.9,-0.97 -4.4,-1.12 -1.5,-0.15 -5.32,0.45 -5.7,-0.15 -0.38,-0.6 -0.3,-2.85 1.2,-3.52 1.5,-0.67 6.6,-2.77 6.67,-3.37 0.07,-0.6 -5.12,-1.67 -8.47,-2.72 -3.24,-1.02 -5,-1.6 -7.42,-2.22 C 11.51,78.82 9.13,78.9 9.13,78.9 l 3.6,-4.72 16.94,1.95 c 0,0 -7.94,-6.15 -9.14,-7.27 -1.2,-1.12 -2.32,-2.32 -2.32,-2.32 0,0 1.42,-0.97 2.7,-0.67 1.28,0.3 8.84,6.6 8.84,6.6 0,0 -0.15,-2.4 0.45,-3.45 0.6,-1.05 1.27,-1.27 1.27,-1.27 0,0 1.12,0.9 1.5,0.37 0.37,-0.52 -1.65,-2.7 -2.4,-4.65 -0.75,-1.95 -0.75,-3.22 -0.75,-3.22 0,0 -3.75,-0.9 -4.35,-5.85 -0.6,-4.95 5.02,-8.24 5.02,-8.24 z"
     id="path6" /><path
     style="fill:#fa1c1f"
     d="m 69.84,21.75 c -0.75,2.95 5.85,9.32 5.85,9.32 l -0.15,2.4 c 0,0 -2.25,5.85 -0.6,7.94 1.65,2.1 8.32,3.9 8.32,3.9 l 7.87,7.94 c 0,0 2.4,3.07 3.37,4.05 0.97,0.97 -4.57,7.94 -4.57,7.94 l -2.85,22.48 2.4,12.22 11.79,-1.12 c 0,0 -0.85,-2.32 -1.22,-3.45 -0.37,-1.12 -4.27,-4.57 -4.27,-4.57 0,0 1.72,-1.87 4.72,-2.02 3,-0.15 6,1.12 5.62,0 -0.37,-1.12 -1.87,-3.45 -1.87,-3.45 l -6.6,-2.62 c 0,0 3.52,-2.17 5.92,-3.07 2.4,-0.9 10.19,-2.85 11.24,-3.22 1.05,-0.37 4.5,0.52 3.37,-1.42 -1.12,-1.95 -7.12,-1.95 -7.12,-1.95 l -12.89,1.2 c 0,0 2.62,-2.77 5.47,-4.8 2.85,-2.02 7.49,-5.32 7.49,-5.32 L 107.32,63 96.98,66.67 c 0,0 -2.32,1.57 -2.32,0.52 0,-1.05 4.4,-2.82 5.9,-6.12 1.07,-2.36 0.17,-3.4 0.17,-3.4 0,0 2.25,-1.12 2.4,-4.65 0.15,-3.52 -2.62,-7.27 -2.62,-7.27 L 78.39,23.13 c 0,0 -7.99,-3.55 -8.55,-1.38 z"
     id="path8" /><path
     style="fill:#ff5f00"
     d="m 34.17,57.63 c -2.59,1.16 -1.72,4.4 -1.2,5.82 0.52,1.42 2.1,4.35 2.1,4.35 0,0 -1.5,2.92 -1.87,4.2 -0.37,1.27 -1.2,6.52 0.37,11.62 1.57,5.1 5.1,12.82 6,14.24 0.9,1.42 3.9,6.82 10.34,9.89 6.44,3.07 14.31,2.96 20.16,2.55 7.49,-0.52 14.54,-5.1 15.81,-6.97 1.27,-1.87 4.05,-3.3 5.62,-8.92 1.57,-5.62 3.15,-14.09 2.7,-20.01 -0.45,-5.92 -2.55,-8.47 -2.55,-8.47 0,0 2.7,-1.27 4.27,-3.37 1.57,-2.1 2.3,-4.55 0.12,-5.37 -2.17,-0.82 -5.57,1.47 -6.42,2.6 -1.3,1.72 -2.02,3.52 -2.02,3.52 0,0 -16.42,-0.15 -23.98,0.22 -12.07,0.6 -18.51,2.02 -18.51,2.02 l -5.17,0.22 c 0,0 -0.22,-10.62 -5.77,-8.14 z"
     id="path10" /><path
     style="fill:#ff5f00"
     d="m 8.19,71.04 c -1.41,-1.04 0.8,-4.1 4.65,-6.7 3.85,-2.6 6.15,-3.45 7.89,-3.15 1.75,0.3 6.5,3.35 8.59,4.75 1.79,1.2 3.7,2.2 3.75,2.5 0.05,0.3 -0.93,0.09 -2,1.85 -0.57,0.95 -1.2,2.85 -1.05,2.75 0.15,-0.1 -9.34,-5.92 -10.14,-5.92 -0.8,0 -5,2.17 -6.4,2.67 -1.39,0.5 -4.14,2.1 -5.29,1.25 z"
     id="path12" /><path
     style="fill:#ff5f00"
     d="m 0.42,85.85 c 0.37,0.88 2.05,1.1 5.2,-1.05 3.15,-2.15 7.34,-6.65 8.19,-6.89 0.85,-0.24 7.24,0.9 10.74,1.4 3.5,0.5 5.55,1 5.55,1 l -0.25,-4.1 c 0,0 -9.89,-2.85 -13.24,-3.25 -3.35,-0.4 -3.7,-1 -5.55,-0.2 -1.85,0.8 -6.05,5.85 -7.19,7.24 -1.14,1.39 -3.85,4.91 -3.45,5.85 z"
     id="path14" /><path
     style="fill:#ff5f00"
     d="m 20.66,84.16 c -2.2,0.45 -8.79,5.85 -9.99,7.89 -1.2,2.05 -4,8.59 -4.65,11.04 -0.65,2.45 0.8,2.5 2.3,1.9 1.5,-0.6 5.3,-6.45 6,-7.44 0.7,-1 3.95,-3.6 4.95,-4.5 1,-0.9 4,-3.5 4.7,-3.65 0.7,-0.15 7.99,0.65 8.34,0.25 0.35,-0.4 -0.15,-2.1 -0.7,-3.05 -0.55,-0.95 -2.37,-2.02 -2.37,-2.02 0,0 -6.89,-0.77 -8.58,-0.42 z"
     id="path16" /><path
     style="fill:#ff5f00"
     d="m 32.15,93.4 c -2.35,-0.6 -7.14,1 -8.49,1.8 -1.35,0.8 -2.8,3 -3.55,6.25 -0.75,3.25 -1.7,8.69 -0.95,9.09 0.75,0.4 3.7,-1 4.9,-3.8 1.2,-2.8 2.75,-5.65 3.95,-6.6 1.2,-0.95 3.15,-1.35 4.9,-1.35 1.75,0 3.9,0 3.9,0 0,0 -1.6,-2.9 -1.95,-3.7 C 34.5,94.3 33.62,93.78 32.15,93.4 Z"
     id="path18" /><path
     style="fill:#ff9003"
     d="m 45.09,70.27 c -1.65,-2.05 -4.55,-0.3 -6.4,2.25 -1.85,2.55 -2.2,3.75 -1.9,8.44 0.3,4.7 4.55,5.15 4.6,1.8 0.05,-3.35 -0.55,-4.35 0.55,-5.95 1.1,-1.6 4.86,-4.42 3.15,-6.54 z"
     id="path20" /><path
     style="fill:#ff9003"
     d="m 39.44,90 c 1.14,1.4 4.35,0.95 4.6,-1.4 0.25,-2.35 -1.3,-3 -2.95,-3 -2.36,0.01 -2.95,2.8 -1.65,4.4 z"
     id="path22" /><path
     style="fill:#ff5f00"
     d="m 95.55,67.44 c 0,0 0.65,0.57 1.15,1.62 0.56,1.18 0.67,1.75 0.85,2 0.22,0.31 8.24,-6.35 10.54,-6.75 2.3,-0.4 8.04,3.7 10.44,4.1 1.89,0.31 3.35,-0.1 2.15,-2.05 -1.2,-1.95 -8.14,-7.69 -11.14,-7.44 -3.48,0.29 -13.44,8.12 -13.99,8.52 z"
     id="path24" /><path
     style="fill:#ff5f00"
     d="m 98.17,74.24 c 0,0 13.65,-5.22 16.81,-4.57 3.65,0.75 6.92,5.72 8.14,6.99 1.37,1.42 5.8,6.1 3.35,6.99 -4.11,1.51 -11.59,-7.84 -12.84,-8.44 -1.25,-0.6 -2,-0.25 -5.4,0.3 -3.4,0.55 -10.43,2.65 -10.43,2.65 -0.02,0.01 0.19,-1.5 0.22,-2.12 0.03,-0.6 0.15,-1.8 0.15,-1.8 z"
     id="path26" /><path
     style="fill:#ff5f00"
     d="m 97.55,82.21 c -0.33,0.33 -0.56,2.46 -0.65,2.95 -0.15,0.8 -0.35,2.1 -0.35,2.1 0,0 7.24,0.15 7.94,0.45 0.7,0.3 2.95,2.62 4.8,4.25 1.42,1.24 5.65,5.35 5.65,5.35 0,0 3.2,6.35 5.15,6.4 1.95,0.05 1.95,-2.65 1.05,-5.1 -0.9,-2.45 -2.2,-6.6 -2.7,-7.09 -0.5,-0.5 -2.25,-3 -4.35,-5.1 -1.03,-1.03 -4.8,-4.3 -5.8,-4.45 -1,-0.16 -10.04,-0.46 -10.74,0.24 z"
     id="path28" /><path
     style="fill:#ff5f00"
     d="m 95.75,90.58 c 0,0 6.94,1.07 9.49,3.32 1.55,1.37 3.37,5.27 3.7,8.49 0.1,1.01 0.75,7.14 -0.95,7.39 -1.7,0.25 -4.02,-3.22 -4.67,-5.02 -0.65,-1.8 -1.82,-4.97 -1.82,-4.97 0,0 -3.23,-1.93 -3.4,-2 -1.2,-0.47 -4.9,-0.55 -4.9,-0.55 0,0 1.24,-2.24 1.65,-3.4 0.5,-1.41 0.9,-3.26 0.9,-3.26 z"
     id="path30" /><path
     style="fill:#ff5f00"
     d="m 34.85,26.4 c -7.69,4.85 -12.02,18.09 -4.6,23.58 8.09,6 19.24,-2.7 24.13,-9.29 4.89,-6.59 7.29,-9.99 5.8,-12.04 -1.49,-2.05 -8.69,4.3 -8.69,4.3 0,0 0.65,2.25 0.55,4.85 -0.1,2.6 -0.3,5.05 -1.45,5.05 -1.15,0 -1.05,-3.85 -2.15,-7.14 -1.1,-3.29 -2.25,-3.7 -2.2,-5 0.05,-1.3 5.85,-4.56 7.32,-5.42 3.17,-1.87 5.85,-3.47 4.57,-4.22 C 57.08,20.43 46.3,19.19 34.85,26.4 Z"
     id="path32" /><path
     style="fill:#ff9003"
     d="m 31.4,44.58 c 3.48,-0.41 1.87,-3.88 2.65,-6.7 0.95,-3.45 3.95,-5.35 1.7,-7.29 -2.47,-2.14 -5.25,2.01 -6.15,6.5 -0.55,2.75 -0.75,7.79 1.8,7.49 z"
     id="path34" /><path
     style="fill:#ff5f00"
     d="m 79.81,32.74 c 0.05,0.95 -2.45,1.85 -3.15,5.2 -0.7,3.35 -0.75,6.1 4.95,10.39 5.7,4.29 12.89,8.14 17.74,2.55 4.85,-5.59 2.6,-16.84 -6.5,-24.08 -7.39,-5.88 -17.64,-7.53 -21.98,-6 -2.55,0.9 2,3.55 4.65,6.15 3.11,3.06 4.24,4.84 4.29,5.79 z"
     id="path36" /><path
     style="fill:#ff5f00"
     d="m 68.87,29.22 c -0.89,0.94 -0.28,4.45 1.4,6.75 1.35,1.85 4.5,5.05 4.5,5.05 0,0 -0.6,-4.15 -0.2,-5.05 0.4,-0.9 0.2,-2.8 0.2,-2.8 0,0 -1.6,-1.45 -2.5,-2.2 -0.9,-0.75 -2.55,-2.65 -3.4,-1.75 z"
     id="path38" /><path
     style="fill:#ff9009"
     d="m 79.61,36.54 c -1.8,0.3 -1.22,3.16 0,5.7 1.25,2.6 3.3,3.75 4.55,2.7 1.25,-1.05 -0.15,-3.35 -0.9,-4.7 -0.75,-1.35 -1.85,-4 -3.65,-3.7 z"
     id="path40" /><ellipse
     transform="matrix(0.2852,-0.9585,0.9585,0.2852,2.2977,107.9575)"
     style="fill:#322d2e"
     cx="73.529999"
     cy="52.439999"
     rx="4.3200002"
     ry="3.3499999"
     id="ellipse42" /><ellipse
     transform="matrix(0.9948,-0.1018,0.1018,0.9948,-5.0547,5.7466)"
     style="fill:#322d2e"
     cx="53.790001"
     cy="52.41"
     rx="3.6400001"
     ry="4.3200002"
     id="ellipse44" /><path
     style="fill:#a62616"
     d="m 77.99,30.1 c -0.7,-1.1 -2.91,0.69 -3.85,2.95 -1.1,2.65 -1.1,6.3 0.35,7.79 1.45,1.49 0.1,-3.6 1.45,-6.3 1.12,-2.24 2.75,-3.35 2.05,-4.44 z"
     id="path46" /><path
     style="fill:#a62616"
     d="m 47.94,28.85 c -0.78,0.78 0.35,1.15 1,2.8 0.65,1.65 1.2,2.9 1.55,4.95 0.27,1.58 0.05,6.87 1.15,5.32 1.1,-1.55 1.32,-8.07 -0.15,-10.57 -1.31,-2.2 -2.66,-3.4 -3.55,-2.5 z"
     id="path48" /><path
     style="fill:#a62616"
     d="m 82.16,63.62 c 0.27,1.09 4.2,0.65 6.75,2.05 2.55,1.4 4.5,4.9 4.35,12.09 -0.16,7.2 -2.26,15.18 -2.61,16.34 -0.85,2.85 -3.9,7.84 -4.45,8.54 -0.55,0.7 -1.82,2.27 0.5,0.65 2.55,-1.78 3.5,-3.2 3.5,-3.2 0,0 4.55,0.15 4.7,-0.75 0.15,-0.9 -3.7,-1.35 -3.7,-1.35 0,0 0.8,-1.55 1.45,-3.55 0.65,-2 1.15,-3.85 1.15,-3.85 0,0 1.15,0.02 3.67,-0.25 2.77,-0.3 6.77,-0.4 7.27,-1.2 0.62,-0.99 -4.12,-0.8 -6.55,-0.57 -1.98,0.18 -4.05,0.07 -4.05,0.07 0,0 0.35,-1.97 0.55,-3.22 0.2,-1.25 0.32,-2.8 0.32,-2.8 0,0 4.92,-1.15 6.47,-1.65 1.55,-0.5 6.8,-2.17 6.75,-2.92 -0.04,-0.55 -4.05,0.15 -6.87,0.85 -2.42,0.6 -6.32,1.45 -6.32,1.45 0,0 0.15,-2.25 0.25,-3.4 0.1,-1.15 0,-2.45 0,-2.45 0,0 1.8,0.2 2.87,-0.27 1.07,-0.47 2.7,-2.24 3.97,-3.12 1.4,-0.97 5.27,-3.7 5.02,-4.35 -0.28,-0.73 -5.02,2.05 -6.5,3.07 -1.14,0.79 -2.82,2.22 -3.67,2.37 -0.85,0.15 -1.8,0.25 -1.8,0.25 0,0 -0.7,-2.95 -1.05,-4.05 -0.35,-1.1 -1.55,-3.4 -3.5,-4.6 -1.95,-1.2 -9.07,-2.63 -8.47,-0.18 z"
     id="path50" /><path
     style="fill:#a32916"
     d="m 36.79,66.12 c -3.1,1.05 -5,4.25 -5.25,6.35 -0.25,2.1 -0.1,2.9 -0.1,2.9 0,0 -3.4,-2.4 -4.7,-3.5 -0.9,-0.76 -6.97,-5.7 -7.67,-4.55 -0.7,1.15 6.07,6.15 6.77,6.85 0.7,0.7 5.5,4.05 5.5,4.05 l 0.6,3.2 c 0,0 -1.67,0.5 -3.32,0.65 -1.65,0.15 -8.41,-2.62 -8.62,-0.82 -0.05,0.42 7.9,2.81 8.49,2.92 1.27,0.25 4.4,-0.15 4.4,-0.15 0,0 1,3.22 1.2,3.82 0.2,0.6 1.07,2.9 1.07,2.9 0,0 -2.82,0.07 -3.67,0.02 -1.32,-0.07 -6.51,-0.53 -6.7,0.45 -0.12,0.65 5.5,1.05 7.29,1.35 1.8,0.3 3.9,0.55 3.9,0.55 0,0 1.02,2.37 1.82,3.57 0.8,1.2 2.52,3.7 2.52,3.7 0,0 -7.11,-1.23 -6.85,-0.02 0.15,0.67 8.44,2.85 8.44,2.85 0,0 8.26,5.36 9.36,5.11 1.14,-0.26 -2.85,-1.95 -6.11,-5.26 -2.13,-2.17 -5.42,-6.5 -7.52,-11.59 -0.85,-2.06 -4.22,-12.68 -4.02,-16.29 0.2,-3.65 1.65,-5.65 3.85,-6.65 2.2,-1 9.84,-2 8.29,-3.2 -1.52,-1.21 -6.98,0.12 -8.97,0.79 z"
     id="path52" /></g>
</svg>
