<?xml version="1.0" encoding="UTF-8" standalone="no"?>
<svg
   version="1.1"
   id="Layer_1"
   x="0px"
   y="0px"
   viewBox="0 0 128.00001 128"
   xml:space="preserve"
   sodipodi:docname="frog.svg"
   width="128"
   height="128"
   inkscape:version="1.2 (dc2aeda, 2022-05-15)"
   xmlns:inkscape="http://www.inkscape.org/namespaces/inkscape"
   xmlns:sodipodi="http://sodipodi.sourceforge.net/DTD/sodipodi-0.dtd"
   xmlns="http://www.w3.org/2000/svg"
   xmlns:svg="http://www.w3.org/2000/svg"><defs
   id="defs6172">
	
	
	
	
	
	
	
	
	
	
	
</defs><sodipodi:namedview
   id="namedview6170"
   pagecolor="#ffffff"
   bordercolor="#666666"
   borderopacity="1.0"
   inkscape:showpageshadow="2"
   inkscape:pageopacity="0.0"
   inkscape:pagecheckerboard="true"
   inkscape:deskcolor="#d1d1d1"
   showgrid="false"
   inkscape:zoom="4.15625"
   inkscape:cx="52.090226"
   inkscape:cy="64.120301"
   inkscape:window-width="1198"
   inkscape:window-height="921"
   inkscape:window-x="433"
   inkscape:window-y="65"
   inkscape:window-maximized="0"
   inkscape:current-layer="Layer_1" />
<style
   type="text/css"
   id="style6143">
	.st0{fill:#E8EDE8;stroke:#E8EDE8;}
	.st1{fill:#4DA853;stroke:#4DA853;}
	.st2{fill:#E0CC51;stroke:#E0CC51;}
	.st3{fill:#273A30;stroke:#273A30;}
</style>
<path
   class="st1"
   d="m 74.976394,24.741162 c 2.029469,-2.320491 5.067492,-3.579853 8.104127,-3.798192 0.863706,-0.0089 1.720942,0.145713 2.577021,0.244685 2.36186,0.19257 4.496599,1.456959 6.263531,2.96401 1.413221,1.494745 2.648895,3.23793 3.247405,5.226378 0.691647,2.240587 0.449215,4.622784 -0.08568,6.86701 -0.519471,1.640343 -1.528313,3.060151 -2.46944,4.480306 0.630923,1.477065 1.558415,2.803044 2.233133,4.258963 0.777792,1.469092 1.126533,3.113479 1.822108,4.615215 0.07777,0.22764 0.370466,0.283453 0.499135,0.06373 2.079446,-2.00399 4.269476,-3.956905 6.836786,-5.325639 2.31096,-1.323436 4.99267,-2.381792 7.7005,-1.906867 1.92802,0.276867 3.61325,1.426395 4.88238,2.859608 0.63086,0.721286 0.74832,1.715914 0.83695,2.630869 0.34689,4.024446 -0.50924,8.061661 -1.82037,11.8498 -1.19985,3.769535 -2.91201,7.352509 -4.79664,10.823049 -1.85868,3.299347 -3.80472,6.55877 -6.01301,9.636832 -2.06205,2.801021 -4.05732,5.657798 -6.317373,8.304151 -0.42986,0.503756 -1.067369,1.18639 -0.672234,1.887858 0.987176,1.791603 1.932058,3.608569 2.914667,5.403638 1.12636,1.811362 2.06038,3.729669 3.03843,5.624804 -1.60811,-0.9651 -3.0709,-2.345043 -5.003534,-2.601919 -0.904092,-0.109198 -1.927262,-0.379478 -2.74336,0.173562 -0.699909,0.479547 -1.277909,1.114337 -1.958462,1.618957 -1.027273,-1.236013 -2.325287,-2.217006 -3.733078,-2.981971 -0.74613,-0.413567 -1.604232,-0.529236 -2.440899,-0.603133 -1.028659,-0.11486 -1.904382,0.551769 -2.847416,0.844178 1.154208,-3.508326 3.099554,-6.69807 4.353485,-10.166992 0.340017,-2.02063 0.584355,-4.063735 0.734402,-6.108573 -2.453956,1.816562 -4.751279,3.93443 -7.627064,5.081069 -0.791948,0.395945 -1.745901,0.61307 -2.342447,1.296801 -0.16946,1.633699 0.109834,3.27537 -0.0025,4.912246 -0.04345,1.370467 0.09574,2.741627 0.02554,4.112787 -0.0535,0.853711 0.08274,1.717244 0.434713,2.499427 0.996535,2.185001 1.754741,4.466961 2.589154,6.715511 -1.480301,-0.85636 -2.651957,-2.15189 -4.15612,-2.96614 -0.585337,0.83718 -1.127342,1.70447 -1.615845,2.60331 -0.175006,0.34117 -0.458921,0.60272 -0.759188,0.8314 -0.512885,-0.61584 -0.961927,-1.28108 -1.31789,-2.00011 -0.241796,-0.4067 -0.444593,-1.03843 -1.036343,-0.95581 -1.379076,0.056 -2.683388,0.63717 -4.070899,0.63058 0.600995,-1.7162 1.599783,-3.25024 2.377228,-4.884336 0.355732,-0.663163 0.158829,-1.421484 0.02513,-2.112149 -0.484054,-2.386588 -0.913741,-4.780687 -1.314134,-7.179178 -1.524847,-0.04056 -3.019707,0.343715 -4.546923,0.321297 -2.335687,0.229721 -4.68264,0.129421 -7.022834,0.05668 -2.885549,-0.257339 -5.751396,-0.684714 -8.61759,-1.093601 -0.514214,2.162703 -0.686736,4.383357 -1.029988,6.574024 -0.09816,0.833604 -0.317426,1.682577 -0.145251,2.521959 0.27704,1.433964 0.598048,2.861164 0.826267,4.307374 0.159233,1.0698 0.520165,2.10372 0.595448,3.18744 -1.359663,-0.99706 -2.126708,-2.59829 -3.532766,-3.53762 -1.05928,0.97793 -1.943093,2.12613 -2.974872,3.13017 -0.532876,-1.10307 -0.931132,-2.26294 -1.377458,-3.40016 -1.513753,-0.32055 -3.039293,0.0947 -4.561078,-0.0666 0.890053,-1.7923 2.46973,-3.130983 3.411492,-4.894043 0.240583,-0.983825 0.04865,-2.006475 0.106541,-3.007459 -0.06847,-2.343833 -0.0301,-4.688418 -0.121332,-7.031038 -0.03288,-0.273227 0.01323,-0.618559 -0.273688,-0.768143 -1.227412,-0.84256 -2.666691,-1.328174 -3.862614,-2.224236 -1.560437,-0.936447 -2.987468,-2.065349 -4.373708,-3.240356 -0.879363,-0.769415 -1.544895,-1.766239 -2.515257,-2.434312 -1.298535,2.547265 -1.737061,5.41993 -2.380926,8.180161 -0.167033,1.855793 -0.896639,3.662417 -0.682923,5.544209 0.329733,2.453148 0.768433,4.889424 1.081525,7.344593 0.155073,1.005604 0.366017,2.008034 0.332044,3.030564 -0.67934,-0.53443 -1.277273,-1.19193 -2.067718,-1.5639 -1.407906,-0.4097 -2.941477,-0.41443 -4.315468,0.13317 -0.984287,0.32621 -1.844469,0.91883 -2.788542,1.33228 -0.504508,0.25191 -0.661199,-0.41911 -0.868386,-0.72695 -0.489833,-1.02161 -1.433617,-1.80131 -2.556279,-2.016464 -2.073669,-0.535765 -4.087424,0.373754 -6.061427,0.875604 1.220478,-1.774728 2.988854,-3.062689 4.449337,-4.626073 1.273402,-1.416804 2.729263,-2.654269 4.018842,-4.052584 0.461926,-0.401087 0.08615,-0.980935 -0.07413,-1.430612 -2.017278,-4.662708 -3.672874,-9.472342 -5.241689,-14.301677 -0.896465,-3.451763 -1.98735,-6.860539 -2.561941,-10.38822 -0.4127,-2.31795 -0.645714,-4.660223 -0.868328,-7.00319 -0.03305,-1.302175 -0.04738,-2.606083 -0.09678,-3.908315 0.129535,-1.336899 0.05546,-2.687433 0.266351,-4.018033 0.342501,-2.490587 0.886239,-5.029475 2.200778,-7.202982 1.445288,-1.041659 3.21661,-1.725391 5.019537,-1.723253 2.583954,-0.08302 4.962858,1.230994 6.876312,2.861456 0.912007,0.658599 1.537962,1.627748 2.452743,2.280511 0.701295,-1.311131 1.186332,-2.730014 1.951239,-4.008385 0.335915,-0.620466 0.803561,-1.178994 1.0115,-1.858912 0.08464,-0.29316 -0.174775,-0.513174 -0.310666,-0.735846 -1.880579,-2.306048 -2.622203,-5.458699 -2.081469,-8.375853 0.152184,-2.173969 1.254682,-4.150688 2.585629,-5.825062 1.724697,-1.991741 4.175591,-3.317835 6.792016,-3.655541 1.291832,-0.241796 2.600247,-0.03374 3.883875,0.158829 2.220827,0.299862 4.246021,1.505087 5.774161,3.113074 0.295991,0.351977 0.761845,0.596257 1.221691,0.404438 0.978162,-0.390629 1.946502,-0.817485 2.983366,-1.040445 6.56137,-1.896179 13.623608,-1.859491 20.216755,-0.143171 0.758437,0.236422 1.497692,0.575168 2.302119,0.628554 0.514445,-0.234285 0.810205,-0.765428 1.200603,-1.153053 m -12.768915,1.438702 c 0.0695,0.292293 0.114456,0.599897 0.258551,0.870928 0.732726,0.518663 1.675875,0.563035 2.543048,0.591519 0.722731,-0.01456 1.677609,-0.09394 1.971982,-0.888145 -0.08441,-0.481108 -0.469841,-0.840365 -0.91871,-0.992144 -1.272593,-0.408829 -2.706383,-0.277618 -3.854871,0.417842 m 21.290596,3.029298 c -0.711465,0.151548 -1.331641,0.585799 -1.855966,1.073436 -1.063094,0.991855 -1.299401,2.682695 -0.711984,3.985794 0.644963,1.335107 2.129712,2.220768 3.6114,2.149067 1.813037,-0.189623 3.37411,-1.865441 3.207886,-3.73302 0.120638,-2.200547 -2.184947,-3.83176 -4.251336,-3.475277 M 51.946368,27.455981 c 0.697655,0.680496 1.680902,0.877861 2.625958,0.858853 0.586955,0.01947 1.291948,-0.274614 1.435061,-0.897101 -0.368269,-0.751446 -1.292121,-0.737868 -2.005492,-0.812516 -0.775077,-0.0743 -1.64508,0.1289 -2.055527,0.850764 m 15.830279,1.480127 c 0.135025,0.358159 0.155882,0.886586 0.618559,0.978509 1.12896,0.40698 2.687201,0.636643 3.482789,-0.49613 -0.902764,-1.310494 -2.833839,-1.096893 -4.101348,-0.482379 m -9.144342,0.330195 c -0.379016,0.08921 -0.465739,0.511498 -0.624683,0.807489 1.048707,0.665763 2.390055,0.824591 3.507228,0.229894 -0.08655,-0.351976 -0.106136,-0.874048 -0.563844,-0.940665 -0.753642,-0.161948 -1.563846,-0.314594 -2.318701,-0.09672 m -18.431162,1.165821 c -2.248964,0.03334 -3.820147,2.560208 -3.15866,4.634686 0.401376,1.924258 2.652477,2.936508 4.448702,2.395601 1.568526,-0.333776 2.556683,-1.961581 2.583145,-3.488219 0.0076,-1.991164 -1.88809,-3.728225 -3.873187,-3.542068 m 25.955903,9.021913 c -1.338978,0.09608 -1.092964,2.481111 0.245263,2.278084 0.9647,0.11694 1.311361,-1.038193 1.059339,-1.782994 -0.244165,-0.452162 -0.844409,-0.512307 -1.304602,-0.49509 m -6.781326,0.192282 c -0.522939,0.138664 -0.896466,0.668073 -0.872835,1.207131 -0.03074,0.739544 0.837071,1.310321 1.512424,1.039175 0.759882,-0.305582 0.964065,-1.406982 0.495726,-2.03363 -0.299804,-0.274498 -0.757397,-0.277444 -1.135315,-0.212676 m 32.139875,8.344768 c -1.147506,0.70378 -2.470134,1.025828 -3.685239,1.583432 -1.687604,0.751966 -3.456558,1.288135 -5.240187,1.746421 -3.1753,0.999539 -6.453501,1.61417 -9.730257,2.169463 -1.359374,0.272187 -2.751507,0.188988 -4.121916,0.338572 -2.068296,0.210481 -4.149476,0.248787 -6.227824,0.23209 -4.538545,0.127282 -9.074952,-0.293564 -13.554218,-1.017162 -1.721404,-0.351109 -3.478744,-0.485036 -5.196566,-0.848048 -2.437663,-0.693091 -4.928365,-1.179399 -7.373424,-1.846722 -2.180382,-0.697251 -4.362325,-1.398777 -6.57281,-1.98891 2.086323,1.321877 4.236026,2.549172 6.400231,3.743362 2.612091,1.547091 5.316221,2.951935 8.120825,4.117005 1.494225,0.650741 3.078755,1.060379 4.581878,1.689684 3.896875,1.489256 8.060101,2.098629 12.195653,2.458001 2.952397,0.200196 5.899363,-0.15282 8.819694,-0.554369 1.265082,-0.04801 2.487698,-0.391034 3.67611,-0.804138 4.282246,-1.256647 8.41202,-3.07292 12.163586,-5.498161 3.122724,-2.068007 6.237416,-4.250007 8.753309,-7.050625 -1.06321,0.381848 -2.045358,0.948639 -3.008845,1.530105 z"
   id="path6147"
   style="stroke-width:0.0577768" /><path
   class="st2"
   d="m 62.207479,26.179864 c 1.148488,-0.69546 2.582336,-0.826671 3.854813,-0.417842 0.448869,0.151779 0.834298,0.511036 0.91871,0.992144 -0.294431,0.7942 -1.249251,0.873586 -1.971982,0.888145 -0.867172,-0.02854 -1.810322,-0.07291 -2.543048,-0.591519 -0.144095,-0.271031 -0.189045,-0.578635 -0.258493,-0.870928 z"
   id="path6149"
   style="stroke-width:0.0577768" /><path
   class="st3"
   d="m 83.498075,29.209162 c 2.066389,-0.356541 4.371974,1.27473 4.251336,3.475277 0.166224,1.867521 -1.394849,3.543339 -3.207886,3.73302 -1.481688,0.07176 -2.966437,-0.81396 -3.6114,-2.149067 -0.587417,-1.303099 -0.35111,-2.993997 0.711984,-3.985794 0.524325,-0.487579 1.144501,-0.921888 1.855966,-1.073436 z"
   id="path6151"
   style="stroke-width:0.0577768" /><path
   class="st2"
   d="m 51.946368,27.455981 c 0.410447,-0.721864 1.28045,-0.925065 2.055527,-0.850822 0.713371,0.07459 1.637223,0.06107 2.005492,0.812516 -0.143113,0.622488 -0.848106,0.916572 -1.435061,0.897101 -0.945056,0.01907 -1.928303,-0.178299 -2.625958,-0.858795 z"
   id="path6153"
   style="stroke-width:0.0577768" /><path
   class="st2"
   d="m 67.776647,28.936108 c 1.267566,-0.614572 3.198642,-0.828115 4.101348,0.482379 -0.795588,1.132773 -2.353829,0.90311 -3.482789,0.49613 -0.462677,-0.09192 -0.483592,-0.62035 -0.618559,-0.978509 z"
   id="path6155"
   style="stroke-width:0.0577768" /><path
   class="st2"
   d="m 58.632305,29.266303 c 0.754855,-0.217876 1.565059,-0.06517 2.318643,0.09672 0.457708,0.06662 0.477294,0.588747 0.563844,0.940665 -1.117173,0.594697 -2.45852,0.435869 -3.507228,-0.229894 0.159002,-0.295991 0.245725,-0.718282 0.624741,-0.807489 z"
   id="path6157"
   style="stroke-width:0.0577768" /><path
   class="st3"
   d="m 40.201143,30.432124 c 1.985097,-0.186157 3.880813,1.550904 3.873129,3.542068 -0.02646,1.526638 -1.014619,3.154443 -2.583145,3.488219 -1.796225,0.540907 -4.047326,-0.471343 -4.448702,-2.395601 -0.661429,-2.074478 0.909754,-4.601348 3.158718,-4.634686 z"
   id="path6159"
   style="stroke-width:0.0577768" /><path
   class="st3"
   d="m 66.157046,39.454037 c 0.460193,-0.01727 1.060437,0.04293 1.304602,0.49509 0.252022,0.744801 -0.09458,1.899934 -1.059339,1.782994 -1.338227,0.203027 -1.584241,-2.181943 -0.245263,-2.278084 z"
   id="path6161"
   style="stroke-width:0.0577768" /><path
   class="st3"
   d="m 59.37572,39.646319 c 0.377918,-0.06471 0.835511,-0.06176 1.135257,0.212676 0.468397,0.62659 0.264156,1.728048 -0.495725,2.03363 -0.675354,0.271146 -1.543162,-0.299631 -1.512425,-1.039175 -0.02357,-0.539115 0.349954,-1.068525 0.872893,-1.207131 z"
   id="path6163"
   style="stroke-width:0.0577768" /><path
   class="st3"
   d="m 91.515595,47.991087 c 0.963487,-0.581466 1.945635,-1.148257 3.008903,-1.530105 -2.515893,2.800618 -5.630586,4.982618 -8.753309,7.050625 -3.751566,2.425183 -7.88134,4.241456 -12.163587,5.498161 -1.188412,0.413104 -2.411085,0.756125 -3.67611,0.804138 -2.92033,0.401549 -5.867296,0.754565 -8.819693,0.554369 C 56.976247,60.008903 52.813021,59.39953 48.916145,57.910274 47.413023,57.280969 45.828493,56.871331 44.334268,56.22059 41.529664,55.05552 38.825534,53.650734 36.213443,52.103585 34.049238,50.909338 31.899534,49.6821 29.813212,48.360223 c 2.210485,0.590191 4.39237,1.291717 6.57281,1.98891 2.445059,0.667323 4.935761,1.153631 7.373424,1.846722 1.717821,0.363012 3.475162,0.496881 5.196566,0.848048 4.479265,0.723655 9.015673,1.144444 13.554217,1.017162 2.078291,0.01676 4.159529,-0.02161 6.227825,-0.23209 1.370467,-0.149584 2.762542,-0.06638 4.121916,-0.338572 3.276756,-0.555293 6.554899,-1.169924 9.730257,-2.169463 1.783629,-0.458344 3.552525,-0.994513 5.240187,-1.746421 1.215047,-0.557604 2.537675,-0.879652 3.685181,-1.583432 z"
   id="path6165"
   style="stroke-width:0.0577768" />
</svg>
