<?xml version="1.0" encoding="UTF-8" standalone="no"?>
<!-- Generator: Adobe Illustrator 25.2.3, SVG Export Plug-In . SVG Version: 6.00 Build 0)  -->

<svg
   version="1.1"
   id="Layer_1"
   x="0px"
   y="0px"
   viewBox="0 0 128 128"
   style="enable-background:new 0 0 128 128;"
   xml:space="preserve"
   sodipodi:docname="leftfoot.svg"
   inkscape:version="1.2 (dc2aeda, 2022-05-15)"
   xmlns:inkscape="http://www.inkscape.org/namespaces/inkscape"
   xmlns:sodipodi="http://sodipodi.sourceforge.net/DTD/sodipodi-0.dtd"
   xmlns="http://www.w3.org/2000/svg"
   xmlns:svg="http://www.w3.org/2000/svg"><defs
   id="defs29" /><sodipodi:namedview
   id="namedview27"
   pagecolor="#ffffff"
   bordercolor="#666666"
   borderopacity="1.0"
   inkscape:showpageshadow="2"
   inkscape:pageopacity="0.0"
   inkscape:pagecheckerboard="0"
   inkscape:deskcolor="#d1d1d1"
   showgrid="false"
   inkscape:zoom="6.109375"
   inkscape:cx="64"
   inkscape:cy="64"
   inkscape:window-width="1569"
   inkscape:window-height="1002"
   inkscape:window-x="1920"
   inkscape:window-y="25"
   inkscape:window-maximized="0"
   inkscape:current-layer="Layer_1" />
<path
   style="fill:#176BC6;"
   d="M49.1,27.3c10.3,15.2-4.7,31.2-3.4,38.1c2.3,12.2,12.1,18.2,2.9,30.5c-1.5,2-8.3,6.7-18,1  C20.2,90.8,6.48,51.8,12.83,35.39C19.42,18.38,42.8,18.1,49.1,27.3z"
   id="path2" />
<path
   style="fill:#176BC6;"
   d="M49.9,24.3c-4.6-3-3.1-24.5,9.8-17S54.5,27.3,49.9,24.3z"
   id="path4" />
<path
   style="fill:#176BC6;"
   d="M38.3,17.9c-4.1-1-6.2-15.4,3-13.6S42.4,18.9,38.3,17.9z"
   id="path6" />
<path
   style="fill:#176BC6;"
   d="M28.8,17.55c-2.5,0.7-12.4-8.9-3.2-11.9C34.4,2.75,31.3,16.85,28.8,17.55z"
   id="path8" />
<path
   style="fill:#176BC6;"
   d="M20.2,21.2c-2.5,1.5-12.2-5.5-5.8-9.9C20.5,7.3,22.7,19.7,20.2,21.2z"
   id="path10" />
<path
   style="fill:#176BC6;"
   d="M13.9,27.05c-1.9,2.5-10.3-1.6-7-5.9S15.8,24.55,13.9,27.05z"
   id="path12" />






</svg>
