<?xml version="1.0" encoding="UTF-8" standalone="no"?>
<!-- Generator: Adobe Illustrator 25.2.3, SVG Export Plug-In . SVG Version: 6.00 Build 0)  -->

<svg
   version="1.1"
   id="Layer_1"
   x="0px"
   y="0px"
   viewBox="0 0 128 128"
   style="enable-background:new 0 0 128 128;"
   xml:space="preserve"
   sodipodi:docname="rightfoot.svg"
   inkscape:version="1.2 (dc2aeda, 2022-05-15)"
   xmlns:inkscape="http://www.inkscape.org/namespaces/inkscape"
   xmlns:sodipodi="http://sodipodi.sourceforge.net/DTD/sodipodi-0.dtd"
   xmlns="http://www.w3.org/2000/svg"
   xmlns:svg="http://www.w3.org/2000/svg"><defs
   id="defs29" /><sodipodi:namedview
   id="namedview27"
   pagecolor="#ffffff"
   bordercolor="#666666"
   borderopacity="1.0"
   inkscape:showpageshadow="2"
   inkscape:pageopacity="0.0"
   inkscape:pagecheckerboard="0"
   inkscape:deskcolor="#d1d1d1"
   showgrid="false"
   inkscape:zoom="6.15625"
   inkscape:cx="64"
   inkscape:cy="64"
   inkscape:window-width="1395"
   inkscape:window-height="1008"
   inkscape:window-x="1920"
   inkscape:window-y="25"
   inkscape:window-maximized="0"
   inkscape:current-layer="Layer_1" />






<path
   style="fill:#176BC6;"
   d="M78.1,51.8C67.8,67,82.8,83,81.5,89.9c-2.3,12.2-12.1,18.2-2.9,30.5c1.5,2,8.3,6.7,18,1  c10.4-6.1,23.56-48.07,18.4-62.2C109.16,43.23,84.4,42.6,78.1,51.8z"
   id="path14" />
<path
   style="fill:#176BC6;"
   d="M77.3,48.8c4.6-3,3.1-24.5-9.8-17S72.7,51.8,77.3,48.8z"
   id="path16" />
<path
   style="fill:#176BC6;"
   d="M88.9,42.4c4.1-1,6.2-15.4-3-13.6S84.8,43.4,88.9,42.4z"
   id="path18" />
<path
   style="fill:#176BC6;"
   d="M98.15,42.3c2.5,0.7,12.3-8.9,3.2-11.9C92.55,27.5,95.65,41.6,98.15,42.3z"
   id="path20" />
<path
   style="fill:#176BC6;"
   d="M107,45.7c2.5,1.5,12.2-5.5,5.8-9.9C106.7,31.8,104.5,44.2,107,45.7z"
   id="path22" />
<path
   style="fill:#176BC6;"
   d="M113.65,51.3c1.9,2.5,10.3-1.6,7-5.9C117.25,41.1,111.65,48.8,113.65,51.3z"
   id="path24" />
</svg>
